<svg width="4214" height="906" viewBox="0 0 4214 906" fill="none" xmlns="http://www.w3.org/2000/svg">
<path d="M54.8338 270.335H76.206C86.474 270.335 95.6889 268.755 103.851 265.596C112.012 262.437 118.594 256.644 123.597 248.219L30 56.6816H97.137L161.509 194.905L221.538 56.6816H287.095L193.103 259.277C182.045 282.709 166.907 299.559 147.687 309.827C128.731 320.095 107.537 325.229 84.1045 325.229H54.8338V270.335Z" fill="white"/>
<path d="M362.467 171.209H296.91V125.398H482.918V171.209H417.361V325.229H362.467V171.209Z" fill="white"/>
<path d="M511.757 125.398H566.651V200.434H598.64C602.589 175.422 613.121 155.807 630.234 141.59C647.347 127.11 671.174 119.869 701.715 119.869C719.355 119.869 734.757 122.37 747.921 127.373C761.085 132.375 772.012 139.484 780.7 148.699C789.651 157.65 796.234 168.708 800.446 181.872C804.922 194.773 807.16 209.254 807.16 225.314C807.16 241.374 804.922 255.986 800.446 269.15C796.234 282.051 789.651 293.109 780.7 302.324C772.012 311.275 761.085 318.252 747.921 323.255C734.757 328.257 719.355 330.758 701.715 330.758C670.385 330.758 646.163 323.255 629.049 308.248C611.936 293.241 601.536 272.573 597.85 246.245H566.651V325.229H511.757V125.398ZM700.53 284.552C717.907 284.552 730.808 279.418 739.233 269.15C747.658 258.882 751.87 244.27 751.87 225.314C751.87 206.357 747.658 191.745 739.233 181.477C730.808 171.209 717.907 166.075 700.53 166.075C683.154 166.075 670.253 171.209 661.828 181.477C653.403 191.745 649.19 206.357 649.19 225.314C649.19 244.27 653.403 258.882 661.828 269.15C670.253 279.418 683.154 284.552 700.53 284.552Z" fill="white"/>
<path d="M995.853 171.209H899.097V325.229H844.202V125.398H995.853V171.209Z" fill="white"/>
<path d="M1130.75 125.398H1247.26C1269.37 125.398 1285.56 130.137 1295.83 139.615C1306.36 149.094 1311.63 161.6 1311.63 177.133C1311.63 198.196 1302.28 212.676 1283.59 220.575C1294.91 224.261 1303.33 230.316 1308.86 238.741C1314.39 246.903 1317.16 257.171 1317.16 269.545C1317.16 286.922 1311.63 300.612 1300.57 310.617C1289.78 320.359 1272.66 325.229 1249.23 325.229H1130.75V125.398ZM1231.85 205.568C1249.23 205.568 1257.92 198.591 1257.92 184.637C1257.92 170.419 1248.97 163.311 1231.06 163.311H1182.09V205.568H1231.85ZM1235.8 287.317C1255.02 287.317 1264.63 279.418 1264.63 263.621C1264.63 247.824 1255.02 239.926 1235.8 239.926H1182.09V287.317H1235.8Z" fill="white"/>
<path d="M1448.55 330.758C1412.48 330.758 1385.36 321.412 1367.2 302.719C1349.03 284.026 1339.95 258.224 1339.95 225.314C1339.95 191.614 1349.16 165.68 1367.59 147.514C1386.02 129.084 1412.88 119.869 1448.16 119.869C1481.59 119.869 1506.74 128.294 1523.59 145.144C1540.44 161.994 1548.86 186.348 1548.86 218.205V234.397H1390.89C1393.79 270.203 1412.75 288.107 1447.76 288.107C1472.51 288.107 1488.04 279.55 1494.36 262.437H1546.49C1542.28 284.552 1531.88 301.534 1515.29 313.382C1498.97 324.966 1476.72 330.758 1448.55 330.758ZM1497.52 203.198C1496.21 189.244 1491.2 178.845 1482.52 171.999C1474.09 164.891 1462.24 161.336 1446.97 161.336C1416.43 161.336 1398.27 175.29 1392.47 203.198H1497.52Z" fill="white"/>
<path d="M1682.64 330.758C1647.36 330.758 1620.51 321.675 1602.08 303.509C1583.65 285.079 1574.43 259.014 1574.43 225.314C1574.43 191.877 1583.65 165.944 1602.08 147.514C1620.51 129.084 1647.63 119.869 1683.43 119.869C1713.71 119.869 1737.27 126.583 1754.12 140.01C1770.97 153.438 1780.72 172.921 1783.35 198.459H1726.87C1725.29 187.664 1720.69 179.634 1713.05 174.369C1705.42 168.84 1695.28 166.075 1682.64 166.075C1665.27 166.075 1652.1 171.209 1643.15 181.477C1634.2 191.482 1629.72 206.094 1629.72 225.314C1629.72 244.797 1634.2 259.54 1643.15 269.545C1652.1 279.55 1665.13 284.552 1682.25 284.552C1708.84 284.552 1724.11 272.836 1728.06 249.404H1783.74C1781.64 275.732 1771.9 295.873 1754.52 309.827C1737.41 323.781 1713.45 330.758 1682.64 330.758Z" fill="white"/>
<path d="M1818.01 125.398H1872.91V198.064H1956.24V125.398H2011.13V325.229H1956.24V243.875H1872.91V325.229H1818.01V125.398Z" fill="white"/>
<path d="M2057.9 325.229V125.398H2112V180.687H2168.87C2192.83 180.687 2211 186.875 2223.37 199.249C2236.01 211.36 2242.33 229.263 2242.33 252.958C2242.33 276.654 2236.01 294.689 2223.37 307.063C2211 319.174 2192.83 325.229 2168.87 325.229H2057.9ZM2268 325.229V125.398H2322.89V325.229H2268ZM2112 284.157H2155.84C2176.9 284.157 2187.43 273.758 2187.43 252.958C2187.43 232.159 2176.9 221.759 2155.84 221.759H2112V284.157Z" fill="white"/>
<rect x="2648.78" width="16.9813" height="906" fill="white"/>
<path d="M1505.62 523.48H1530.38L1571.01 628.942L1611.65 523.48H1636.4V652H1619.96V544.459L1578.76 652H1563.07L1520.74 543.892V652H1505.62V523.48ZM1675.01 538.6C1671.86 538.6 1669.34 537.655 1667.45 535.765C1665.56 533.875 1664.61 531.355 1664.61 528.205C1664.61 525.055 1665.56 522.535 1667.45 520.645C1669.34 518.755 1671.86 517.81 1675.01 517.81C1678.16 517.81 1680.68 518.755 1682.57 520.645C1684.46 522.535 1685.4 525.055 1685.4 528.205C1685.4 531.355 1684.46 533.875 1682.57 535.765C1680.68 537.655 1678.16 538.6 1675.01 538.6ZM1667.45 557.5H1682.57V652H1667.45V557.5ZM1712.12 557.5H1727.24V570.163C1730.13 565.123 1734.1 561.343 1739.14 558.823C1744.31 556.177 1750.29 554.854 1757.1 554.854C1768.56 554.854 1777.32 558.319 1783.37 565.249C1789.54 572.179 1792.63 581.944 1792.63 594.544V652H1777.51V598.135C1777.51 588.055 1775.62 580.621 1771.84 575.833C1768.06 571.045 1762.07 568.651 1753.88 568.651C1745.32 568.651 1738.7 571.171 1734.04 576.211C1729.5 581.125 1727.24 588.244 1727.24 597.568V652H1712.12V557.5ZM1861.48 654.646C1846.48 654.646 1834.89 650.299 1826.7 641.605C1818.64 632.785 1814.6 620.5 1814.6 604.75C1814.6 588.874 1818.64 576.589 1826.7 567.895C1834.89 559.201 1846.36 554.854 1861.1 554.854C1874.96 554.854 1885.54 558.697 1892.85 566.383C1900.16 573.943 1903.81 584.716 1903.81 598.702V607.018H1829.53C1829.91 618.106 1832.75 626.548 1838.04 632.344C1843.46 638.014 1851.21 640.849 1861.29 640.849C1874.39 640.849 1882.9 635.62 1886.8 625.162H1902.3C1900.16 634.612 1895.68 641.92 1888.88 647.086C1882.08 652.126 1872.94 654.646 1861.48 654.646ZM1888.5 594.355C1888.12 585.787 1885.54 579.361 1880.75 575.077C1875.97 570.793 1869.29 568.651 1860.72 568.651C1843.33 568.651 1833.19 577.219 1830.29 594.355H1888.5ZM1967.6 654.646C1952.74 654.646 1941.21 650.362 1933.02 641.794C1924.83 633.1 1920.73 620.752 1920.73 604.75C1920.73 588.748 1924.83 576.463 1933.02 567.895C1941.21 559.201 1952.86 554.854 1967.98 554.854C1980.2 554.854 1989.78 557.689 1996.71 563.359C2003.64 568.903 2007.92 576.904 2009.56 587.362H1993.87C1992.74 581.188 1989.97 576.589 1985.56 573.565C1981.15 570.415 1975.23 568.84 1967.79 568.84C1957.33 568.84 1949.4 571.927 1943.98 578.101C1938.56 584.149 1935.85 593.032 1935.85 604.75C1935.85 616.468 1938.56 625.414 1943.98 631.588C1949.4 637.636 1957.27 640.66 1967.6 640.66C1982.6 640.66 1991.48 634.045 1994.25 620.815H2009.75C2008.24 631.651 2003.89 640.03 1996.71 645.952C1989.65 651.748 1979.95 654.646 1967.6 654.646ZM2031.61 557.5H2046.73V570.163C2049.5 565.753 2053.34 562.54 2058.26 560.524C2063.17 558.508 2069.6 557.5 2077.53 557.5H2084.72V571.108H2077.72C2066.76 571.108 2058.82 573.376 2053.91 577.912C2049.12 582.322 2046.73 589.504 2046.73 599.458V652H2031.61V557.5ZM2132.47 654.646C2122.14 654.646 2114.07 652.189 2108.28 647.275C2102.61 642.235 2099.77 635.242 2099.77 626.296C2099.77 617.35 2102.73 610.546 2108.66 605.884C2114.7 601.222 2123.97 598.198 2136.44 596.812L2162.52 593.788V590.197C2162.52 583.141 2160.76 577.723 2157.23 573.943C2153.7 570.163 2147.97 568.273 2140.03 568.273C2127.68 568.273 2120.63 573.061 2118.86 582.637H2102.99C2104.37 573.565 2108.28 566.698 2114.7 562.036C2121.26 557.248 2129.95 554.854 2140.79 554.854C2153.13 554.854 2162.33 557.878 2168.38 563.926C2174.43 569.848 2177.45 578.29 2177.45 589.252V635.557C2177.45 638.077 2178.78 639.337 2181.42 639.337H2184.26V652.567H2177.64C2172.35 652.567 2168.63 651.559 2166.49 649.543C2164.47 647.401 2163.47 644.188 2163.47 639.904V639.148C2160.44 644.44 2156.28 648.346 2150.99 650.866C2145.83 653.386 2139.65 654.646 2132.47 654.646ZM2137.76 609.286C2129.82 610.294 2124.03 612.121 2120.37 614.767C2116.72 617.287 2114.89 621.067 2114.89 626.107C2114.89 630.895 2116.47 634.612 2119.62 637.258C2122.89 639.904 2127.93 641.227 2134.74 641.227C2144.31 641.227 2151.31 638.518 2155.72 633.1C2160.25 627.682 2162.52 620.059 2162.52 610.231V606.262L2137.76 609.286ZM2217.56 571.486H2200.17V557.5H2217.56V543.136C2217.56 524.992 2226.5 515.92 2244.4 515.92H2261.03V529.906H2246.66C2242.13 529.906 2238.66 530.977 2236.27 533.119C2233.88 535.261 2232.68 539.23 2232.68 545.026V557.5H2260.65V571.486H2232.68V652H2217.56V571.486ZM2317.34 652C2299.45 652 2290.51 642.928 2290.51 624.784V571.486H2273.12V557.5H2290.51V531.04H2305.63V557.5H2333.6V571.486H2305.63V622.894C2305.63 628.69 2306.82 632.659 2309.22 634.801C2311.61 636.943 2315.08 638.014 2319.61 638.014H2333.98V652H2317.34ZM1843.03 863.646C1830.81 863.646 1821.43 861 1814.87 855.708C1808.45 850.416 1804.73 842.667 1803.72 832.461H1819.22C1820.1 838.383 1822.43 842.793 1826.21 845.691C1829.99 848.589 1835.6 850.038 1843.03 850.038C1850.22 850.038 1855.63 848.778 1859.29 846.258C1862.94 843.612 1864.77 839.895 1864.77 835.107C1864.77 830.571 1863.07 827.232 1859.67 825.09C1856.26 822.822 1850.97 821.121 1843.79 819.987L1833.02 818.286C1822.81 816.648 1815.57 813.75 1811.28 809.592C1807.12 805.434 1805.05 799.827 1805.05 792.771C1805.05 783.573 1808.13 776.454 1814.31 771.414C1820.48 766.374 1829.3 763.854 1840.77 763.854C1851.6 763.854 1859.92 766.185 1865.71 770.847C1871.51 775.509 1875.16 782.376 1876.68 791.448H1861.18C1860.17 786.786 1858.09 783.321 1854.94 781.053C1851.92 778.659 1847.13 777.462 1840.58 777.462C1826.97 777.462 1820.17 782.25 1820.17 791.826C1820.17 795.48 1821.43 798.252 1823.95 800.142C1826.59 802.032 1831.51 803.607 1838.69 804.867L1849.84 806.757C1859.67 808.395 1867.1 811.419 1872.14 815.829C1877.31 820.239 1879.89 826.539 1879.89 834.729C1879.89 843.801 1876.74 850.92 1870.44 856.086C1864.14 861.126 1855 863.646 1843.03 863.646ZM1943.79 863.646C1928.8 863.646 1917.21 859.299 1909.02 850.605C1900.95 841.785 1896.92 829.5 1896.92 813.75C1896.92 797.874 1900.95 785.589 1909.02 776.895C1917.21 768.201 1928.67 763.854 1943.42 763.854C1957.28 763.854 1967.86 767.697 1975.17 775.383C1982.48 782.943 1986.13 793.716 1986.13 807.702V816.018H1911.85C1912.23 827.106 1915.07 835.548 1920.36 841.344C1925.78 847.014 1933.52 849.849 1943.6 849.849C1956.71 849.849 1965.21 844.62 1969.12 834.162H1984.62C1982.48 843.612 1978 850.92 1971.2 856.086C1964.39 861.126 1955.26 863.646 1943.79 863.646ZM1970.82 803.355C1970.44 794.787 1967.86 788.361 1963.07 784.077C1958.28 779.793 1951.61 777.651 1943.04 777.651C1925.65 777.651 1915.51 786.219 1912.61 803.355H1970.82ZM2008.72 766.5H2023.84V779.163C2026.61 774.753 2030.45 771.54 2035.37 769.524C2040.28 767.508 2046.71 766.5 2054.65 766.5H2061.83V780.108H2054.84C2043.87 780.108 2035.94 782.376 2031.02 786.912C2026.23 791.322 2023.84 798.504 2023.84 808.458V861H2008.72V766.5ZM2070.46 766.5H2086.71L2116.2 844.179L2144.55 766.5H2160.42L2124.14 861H2107.88L2070.46 766.5ZM2219.36 863.646C2204.36 863.646 2192.77 859.299 2184.58 850.605C2176.52 841.785 2172.49 829.5 2172.49 813.75C2172.49 797.874 2176.52 785.589 2184.58 776.895C2192.77 768.201 2204.24 763.854 2218.98 763.854C2232.84 763.854 2243.42 767.697 2250.73 775.383C2258.04 782.943 2261.69 793.716 2261.69 807.702V816.018H2187.42C2187.79 827.106 2190.63 835.548 2195.92 841.344C2201.34 847.014 2209.09 849.849 2219.17 849.849C2232.27 849.849 2240.78 844.62 2244.68 834.162H2260.18C2258.04 843.612 2253.57 850.92 2246.76 856.086C2239.96 861.126 2230.82 863.646 2219.36 863.646ZM2246.38 803.355C2246.01 794.787 2243.42 788.361 2238.64 784.077C2233.85 779.793 2227.17 777.651 2218.6 777.651C2201.21 777.651 2191.07 786.219 2188.17 803.355H2246.38ZM2284.28 766.5H2299.4V779.163C2302.18 774.753 2306.02 771.54 2310.93 769.524C2315.85 767.508 2322.27 766.5 2330.21 766.5H2337.39V780.108H2330.4C2319.44 780.108 2311.5 782.376 2306.59 786.912C2301.8 791.322 2299.4 798.504 2299.4 808.458V861H2284.28V766.5Z" fill="white"/>
<rect x="3264" y="856" width="50" height="50" fill="#536651"/>
<rect x="3214" y="856" width="50" height="50" fill="#334E3E"/>
<rect x="3164" y="856" width="50" height="50" fill="#405B4A"/>
<rect x="3114" y="856" width="50" height="50" fill="#5A7163"/>
<rect x="3064" y="856" width="50" height="50" fill="#5A7163"/>
<rect x="3514" y="856" width="50" height="50" fill="#334E3E"/>
<rect x="3464" y="856" width="50" height="50" fill="#6F8377"/>
<rect x="3614" y="856" width="50" height="50" fill="#6F8377"/>
<rect x="3564" y="856" width="50" height="50" fill="#536651"/>
<rect x="3414" y="856" width="50" height="50" fill="#5A7163"/>
<rect x="3364" y="856" width="50" height="50" fill="#6F8377"/>
<rect x="3564" y="806" width="50" height="50" fill="#334E3E"/>
<rect x="3514" y="806" width="50" height="50" fill="#405B4A"/>
<rect x="3664" y="806" width="50" height="50" fill="#6F8377"/>
<rect x="3614" y="806" width="50" height="50" fill="#334E3E"/>
<rect x="3464" y="806" width="50" height="50" fill="#5A7163"/>
<rect x="3414" y="806" width="50" height="50" fill="#405B4A"/>
<rect x="3564" y="756" width="50" height="50" fill="#536651"/>
<rect x="3514" y="756" width="50" height="50" fill="#405B4A"/>
<rect x="3664" y="756" width="50" height="50" fill="#536651"/>
<rect x="3614" y="756" width="50" height="50" fill="#6F8377"/>
<rect x="3464" y="756" width="50" height="50" fill="#536651"/>
<rect x="3414" y="756" width="50" height="50" fill="#405B4A"/>
<rect x="3614" y="706" width="50" height="50" fill="#5A7163"/>
<rect x="3564" y="706" width="50" height="50" fill="#536651"/>
<rect x="3714" y="706" width="50" height="50" fill="#6F8377"/>
<rect x="3664" y="706" width="50" height="50" fill="#405B4A"/>
<rect x="3514" y="706" width="50" height="50" fill="#334E3E"/>
<rect x="3464" y="706" width="50" height="50" fill="#6F8377"/>
<rect x="3664" y="656" width="50" height="50" fill="#405B4A"/>
<rect x="3614" y="656" width="50" height="50" fill="#405B4A"/>
<rect x="3764" y="656" width="50" height="50" fill="#536651"/>
<rect x="3714" y="656" width="50" height="50" fill="#536651"/>
<rect x="3564" y="656" width="50" height="50" fill="#334E3E"/>
<rect x="3514" y="656" width="50" height="50" fill="#405B4A"/>
<rect x="3664" y="606" width="50" height="50" fill="#334E3E"/>
<rect x="3614" y="606" width="50" height="50" fill="#6F8377"/>
<rect x="3764" y="606" width="50" height="50" fill="#536651"/>
<rect x="3714" y="606" width="50" height="50" fill="#6F8377"/>
<rect x="3564" y="606" width="50" height="50" fill="#6F8377"/>
<rect x="3514" y="606" width="50" height="50" fill="#405B4A"/>
<rect x="3714" y="556" width="50" height="50" fill="#536651"/>
<rect x="3664" y="556" width="50" height="50" fill="#334E3E"/>
<rect x="3814" y="556" width="50" height="50" fill="#536651"/>
<rect x="3764" y="556" width="50" height="50" fill="#6F8377"/>
<rect x="3614" y="556" width="50" height="50" fill="#6F8377"/>
<rect x="3564" y="556" width="50" height="50" fill="#5A7163"/>
<rect x="3764" y="506" width="50" height="50" fill="#5A7163"/>
<rect x="3714" y="506" width="50" height="50" fill="#334E3E"/>
<rect x="3864" y="506" width="50" height="50" fill="#6F8377"/>
<rect x="3814" y="506" width="50" height="50" fill="#405B4A"/>
<rect x="3664" y="506" width="50" height="50" fill="#536651"/>
<rect x="3614" y="506" width="50" height="50" fill="#334E3E"/>
<rect x="3764" y="456" width="50" height="50" fill="#405B4A"/>
<rect x="3714" y="456" width="50" height="50" fill="#6F8377"/>
<rect x="3864" y="456" width="50" height="50" fill="#6F8377"/>
<rect x="3814" y="456" width="50" height="50" fill="#405B4A"/>
<rect x="3664" y="456" width="50" height="50" fill="#6F8377"/>
<rect x="3614" y="456" width="50" height="50" fill="#6F8377"/>
<rect x="3814" y="406" width="50" height="50" fill="#334E3E"/>
<rect x="3764" y="406" width="50" height="50" fill="#334E3E"/>
<rect x="3914" y="406" width="50" height="50" fill="#405B4A"/>
<rect x="3864" y="406" width="50" height="50" fill="#536651"/>
<rect x="3714" y="406" width="50" height="50" fill="#405B4A"/>
<rect x="3664" y="406" width="50" height="50" fill="#405B4A"/>
<rect x="3864" y="356" width="50" height="50" fill="#6F8377"/>
<rect x="3814" y="356" width="50" height="50" fill="#536651"/>
<rect x="3964" y="356" width="50" height="50" fill="#405B4A"/>
<rect x="3914" y="356" width="50" height="50" fill="#536651"/>
<rect x="3764" y="356" width="50" height="50" fill="#5A7163"/>
<rect x="3714" y="356" width="50" height="50" fill="#405B4A"/>
<rect x="3864" y="306" width="50" height="50" fill="#5A7163"/>
<rect x="3814" y="306" width="50" height="50" fill="#334E3E"/>
<rect x="3964" y="306" width="50" height="50" fill="#6F8377"/>
<rect x="3914" y="306" width="50" height="50" fill="#334E3E"/>
<rect x="3764" y="306" width="50" height="50" fill="#405B4A"/>
<rect x="3714" y="306" width="50" height="50" fill="#5A7163"/>
<rect x="3364" y="356" width="50" height="50" fill="#536651"/>
<rect x="3314" y="356" width="50" height="50" fill="#6F8377"/>
<rect x="3464" y="356" width="50" height="50" fill="#6F8377"/>
<rect x="3414" y="356" width="50" height="50" fill="#536651"/>
<rect x="3214" y="356" width="50" height="50" fill="#405B4A"/>
<rect x="3264" y="356" width="50" height="50" fill="#405B4A"/>
<rect x="3364" y="306" width="50" height="50" fill="#6F8377"/>
<rect x="3314" y="306" width="50" height="50" fill="#536651"/>
<rect x="3464" y="306" width="50" height="50" fill="#405B4A"/>
<rect x="3414" y="306" width="50" height="50" fill="#405B4A"/>
<rect x="3264" y="306" width="50" height="50" fill="#6F8377"/>
<rect x="3214" y="306" width="50" height="50" fill="#5A7163"/>
<rect x="3914" y="256" width="50" height="50" fill="#405B4A"/>
<rect x="3864" y="256" width="50" height="50" fill="#405B4A"/>
<rect x="4014" y="256" width="50" height="50" fill="#405B4A"/>
<rect x="3964" y="256" width="50" height="50" fill="#536651"/>
<rect x="3814" y="256" width="50" height="50" fill="#334E3E"/>
<rect x="3764" y="256" width="50" height="50" fill="#536651"/>
<rect x="3964" y="206" width="50" height="50" fill="#6F8377"/>
<rect x="3914" y="206" width="50" height="50" fill="#6F8377"/>
<rect x="4064" y="206" width="50" height="50" fill="#5A7163"/>
<rect x="4014" y="206" width="50" height="50" fill="#405B4A"/>
<rect x="3864" y="206" width="50" height="50" fill="#5A7163"/>
<rect x="3814" y="206" width="50" height="50" fill="#536651"/>
<rect x="3964" y="156" width="50" height="50" fill="#334E3E"/>
<rect x="3914" y="156" width="50" height="50" fill="#405B4A"/>
<rect x="4064" y="156" width="50" height="50" fill="#536651"/>
<rect x="4014" y="156" width="50" height="50" fill="#5A7163"/>
<rect x="3864" y="156" width="50" height="50" fill="#405B4A"/>
<rect x="3814" y="156" width="50" height="50" fill="#5A7163"/>
<rect x="4014" y="106" width="50" height="50" fill="#6F8377"/>
<rect x="3964" y="106" width="50" height="50" fill="#334E3E"/>
<rect x="4114" y="106" width="50" height="50" fill="#405B4A"/>
<rect x="4064" y="106" width="50" height="50" fill="#405B4A"/>
<rect x="3914" y="106" width="50" height="50" fill="#6F8377"/>
<rect x="3864" y="106" width="50" height="50" fill="#5A7163"/>
<rect x="4064" y="56" width="50" height="50" fill="#6F8377"/>
<rect x="4014" y="56" width="50" height="50" fill="#5A7163"/>
<rect x="4164" y="56" width="50" height="50" fill="#5A7163"/>
<rect x="4114" y="56" width="50" height="50" fill="#5A7163"/>
<rect x="3964" y="56" width="50" height="50" fill="#5A7163"/>
<rect x="3914" y="56" width="50" height="50" fill="#405B4A"/>
<rect x="4064" y="6" width="50" height="50" fill="#405B4A"/>
<rect x="4014" y="6" width="50" height="50" fill="#5A7163"/>
<rect x="4164" y="6" width="50" height="50" fill="#5A7163"/>
<rect x="4114" y="6" width="50" height="50" fill="#405B4A"/>
<rect x="3964" y="6" width="50" height="50" fill="#405B4A"/>
<rect x="3914" y="6" width="50" height="50" fill="#5A7163"/>
<rect x="3464" y="406" width="50" height="50" fill="#6F8377"/>
<rect x="3414" y="406" width="50" height="50" fill="#6F8377"/>
<rect x="3264" y="406" width="50" height="50" fill="#405B4A"/>
<rect x="3514" y="406" width="50" height="50" fill="#5A7163"/>
<rect x="3364" y="406" width="50" height="50" fill="#6F8377"/>
<rect x="3314" y="406" width="50" height="50" fill="#6F8377"/>
<rect x="3264" y="206" width="50" height="50" fill="#405B4A"/>
<rect x="3214" y="206" width="50" height="50" fill="#5A7163"/>
<rect x="3364" y="206" width="50" height="50" fill="#5A7163"/>
<rect x="3314" y="206" width="50" height="50" fill="#6F8377"/>
<rect x="3114" y="206" width="50" height="50" fill="#6F8377"/>
<rect x="3164" y="206" width="50" height="50" fill="#536651"/>
<rect x="3264" y="156" width="50" height="50" fill="#334E3E"/>
<rect x="3214" y="156" width="50" height="50" fill="#334E3E"/>
<rect x="3364" y="156" width="50" height="50" fill="#5A7163"/>
<rect x="3314" y="156" width="50" height="50" fill="#5A7163"/>
<rect x="3164" y="156" width="50" height="50" fill="#536651"/>
<rect x="3114" y="156" width="50" height="50" fill="#334E3E"/>
<rect x="3364" y="256" width="50" height="50" fill="#405B4A"/>
<rect x="3314" y="256" width="50" height="50" fill="#536651"/>
<rect x="3164" y="256" width="50" height="50" fill="#5A7163"/>
<rect x="3414" y="256" width="50" height="50" fill="#5A7163"/>
<rect x="3264" y="256" width="50" height="50" fill="#536651"/>
<rect x="3214" y="256" width="50" height="50" fill="#6F8377"/>
<rect x="3164" y="56" width="50" height="50" fill="#6F8377"/>
<rect x="3114" y="56" width="50" height="50" fill="#6F8377"/>
<rect x="3264" y="56" width="50" height="50" fill="#405B4A"/>
<rect x="3214" y="56" width="50" height="50" fill="#5A7163"/>
<rect x="3014" y="56" width="50" height="50" fill="#405B4A"/>
<rect x="3064" y="56" width="50" height="50" fill="#5A7163"/>
<rect x="3164" y="6" width="50" height="50" fill="#405B4A"/>
<rect x="3114" y="6" width="50" height="50" fill="#5A7163"/>
<rect x="3264" y="6" width="50" height="50" fill="#5A7163"/>
<rect x="3214" y="6" width="50" height="50" fill="#405B4A"/>
<rect x="3064" y="6" width="50" height="50" fill="#405B4A"/>
<rect x="3014" y="6" width="50" height="50" fill="#5A7163"/>
<rect x="3264" y="106" width="50" height="50" fill="#334E3E"/>
<rect x="3214" y="106" width="50" height="50" fill="#6F8377"/>
<rect x="3064" y="106" width="50" height="50" fill="#6F8377"/>
<rect x="3314" y="106" width="50" height="50" fill="#405B4A"/>
<rect x="3164" y="106" width="50" height="50" fill="#5A7163"/>
<rect x="3114" y="106" width="50" height="50" fill="#5A7163"/>
<rect x="3264" y="806" width="50" height="50" fill="#334E3E"/>
<rect x="3214" y="806" width="50" height="50" fill="#405B4A"/>
<rect x="3164" y="806" width="50" height="50" fill="#6F8377"/>
<rect x="3114" y="806" width="50" height="50" fill="#334E3E"/>
<rect x="3064" y="806" width="50" height="50" fill="#405B4A"/>
<rect x="3264" y="756" width="50" height="50" fill="#405B4A"/>
<rect x="3214" y="756" width="50" height="50" fill="#5A7163"/>
<rect x="3164" y="756" width="50" height="50" fill="#5A7163"/>
<rect x="3114" y="756" width="50" height="50" fill="#334E3E"/>
<rect x="3064" y="756" width="50" height="50" fill="#6F8377"/>
<rect x="3264" y="706" width="50" height="50" fill="#405B4A"/>
<rect x="3214" y="706" width="50" height="50" fill="#536651"/>
<rect x="3164" y="706" width="50" height="50" fill="#405B4A"/>
<rect x="3114" y="706" width="50" height="50" fill="#6F8377"/>
<rect x="3064" y="706" width="50" height="50" fill="#405B4A"/>
<rect x="3264" y="656" width="50" height="50" fill="#405B4A"/>
<rect x="3214" y="656" width="50" height="50" fill="#6F8377"/>
<rect x="3164" y="656" width="50" height="50" fill="#6F8377"/>
<rect x="3114" y="656" width="50" height="50" fill="#405B4A"/>
<rect x="3064" y="656" width="50" height="50" fill="#405B4A"/>
<rect x="3264" y="606" width="50" height="50" fill="#5A7163"/>
<rect x="3214" y="606" width="50" height="50" fill="#405B4A"/>
<rect x="3164" y="606" width="50" height="50" fill="#405B4A"/>
<rect x="3114" y="606" width="50" height="50" fill="#5A7163"/>
<rect x="3064" y="606" width="50" height="50" fill="#5A7163"/>
</svg>
